PathFileType   4   (X/Y/Z)
DataRate	CameraRate	NumFrames	NumMarkers	Units	OrigDataRate	OrigDataStartFrame	OrigNumFrames
120.0	120.0	5	37	mm	120.0	59	156
Frame#	Time	midhip	hip_r	hip_l	knee_r	knee_l	ankle_r	ankle_l	midasis	asis_r	asis_l	psis_r	psis_l	epicondLat_r	epicondLat_l	epicondMed_r	epicondMed_l	malleolusLat_r	malleolusLat_l	malleolusMedv_r	malleolusMedv_l	neck	subclavicle_r	subclavicle_l	sternalnotch	xyphoidprocess	thighwand_r	thighwand_l	upperleg1_r	upperleg1_l	upperleg2_r	upperleg2_l	shankwand_r	shankwand_l	lowerleg1_r	lowerleg1_l	toe_r	toe_l
 	 	X1	Y1	Z1	X2	Y2	Z2	X3	Y3	Z3	X4	Y4	Z4	X5	Y5	Z5	X6	Y6	Z6	X7	Y7	Z7	X8	Y8	Z8	X9	Y9	Z9	X10	Y10	Z10	X11	Y11	Z11	X12	Y12	Z12	X13	Y13	Z13	X14	Y14	Z14	X15	Y15	Z15	X16	Y16	Z16	X17	Y17	Z17	X18	Y18	Z18	X19	Y19	Z19	X20	Y20	Z20	X21	Y21	Z21	X22	Y22	Z22	X23	Y23	Z23	X24	Y24	Z24	X25	Y25	Z25	X26	Y26	Z26	X27	Y27	Z27	X28	Y28	Z28	X29	Y29	Z29	X30	Y30	Z30	X31	Y31	Z31	X32	Y32	Z32	X33	Y33	Z33	X34	Y34	Z34	X35	Y35	Z35	X36	Y36	Z36	X37	Y37	Z37

	59	0.70000	-1914.762	886.754	197.574	-1910.109	878.795	249.722	-1917.459	876.026	143.442	-1754.431	490.020	259.136	-1986.748	471.541	135.654	-1653.222	84.761	261.485	-2119.993	73.053	156.480	-1836.538	975.116	188.694	-1829.333	977.829	292.868	-1843.743	972.402	84.521	-2034.224	998.384	243.863	-2040.332	1000.263	158.642	-1749.614	493.383	318.346	-1981.504	471.784	76.386	-1776.889	488.946	206.244	-1999.915	476.218	182.698	-1659.608	83.383	298.919	-2122.000	71.663	117.055	-1656.710	92.134	228.852	-2112.377	81.374	185.794	-1962.522	1455.794	177.844	-1861.680	1387.307	257.305	-1871.235	1381.515	103.328	-1878.989	1385.727	177.072	-1843.757	1183.806	175.719	-1758.984	594.700	402.736	-1821.610	574.227	126.986	-1761.754	658.129	330.566	-1884.601	646.658	86.528	-1738.596	580.411	308.372	-1909.778	563.197	90.179	-1670.301	161.553	366.784	-1987.787	151.793	158.953	-1699.780	212.818	305.224	-2036.446	217.615	142.611	-1532.516	92.432	252.676	-1994.539	41.171	149.415
	60	0.70833	-1908.175	886.048	198.080	-1903.491	877.805	249.703	-1911.270	875.154	143.450	-1747.740	489.278	259.024	-1982.487	471.050	136.043	-1644.347	84.502	261.292	-2119.631	73.715	156.539	-1830.178	974.203	188.486	-1822.552	976.801	292.645	-1837.804	971.604	84.328	-2027.733	997.474	244.627	-2034.068	999.287	159.381	-1742.549	492.779	318.194	-1977.490	471.256	76.753	-1770.590	488.120	206.004	-1995.042	475.659	183.420	-1650.557	83.126	298.756	-2121.674	72.386	117.114	-1647.739	91.851	228.791	-2111.932	81.981	185.859	-1956.538	1454.897	179.312	-1855.572	1386.026	258.651	-1865.301	1380.670	104.333	-1872.971	1384.685	178.264	-1837.920	1182.736	176.299	-1751.369	594.111	402.296	-1816.682	573.104	126.648	-1754.799	657.389	330.085	-1880.102	645.722	86.282	-1731.682	579.754	307.777	-1905.323	562.427	90.219	-1661.361	161.315	366.616	-1986.635	151.155	159.022	-1691.166	212.373	305.229	-2034.640	217.453	142.758	-1523.555	92.533	252.382	-1994.422	41.051	149.351
	61	0.71667	-1901.433	885.467	198.596	-1896.809	876.849	249.759	-1905.047	874.311	143.539	-1741.058	488.577	258.865	-1978.053	470.547	136.469	-1636.440	84.010	260.987	-2119.252	74.478	156.611	-1823.772	973.321	188.329	-1815.693	975.810	292.497	-1831.851	970.831	84.161	-2021.183	996.586	245.381	-2027.730	998.342	160.152	-1735.447	492.214	317.988	-1973.294	470.725	77.160	-1764.218	487.599	205.477	-1990.438	475.333	183.883	-1642.480	82.645	298.479	-2121.324	73.212	117.186	-1639.718	91.350	228.573	-2111.445	82.628	185.945	-1950.453	1454.003	180.875	-1849.362	1384.751	259.978	-1859.376	1379.883	105.510	-1866.907	1383.677	179.542	-1832.066	1181.700	176.886	-1743.650	593.588	401.787	-1811.666	572.037	126.385	-1747.713	656.736	329.626	-1874.963	644.885	86.364	-1724.650	579.192	307.045	-1900.674	561.621	90.349	-1653.219	160.871	366.362	-1985.462	150.546	159.123	-1683.157	211.787	305.059	-2032.747	217.357	142.899	-1515.503	92.171	252.166	-1994.274	40.918	149.296
	62	0.72500	-1894.760	884.786	199.096	-1890.068	875.943	249.885	-1898.761	873.508	143.698	-1734.358	487.941	258.652	-1973.419	470.038	136.929	-1629.524	83.299	260.537	-2118.834	75.350	156.679	-1817.309	972.486	188.238	-1808.779	974.875	292.432	-1825.840	970.096	84.043	-2014.580	995.726	246.117	-2021.329	997.446	160.935	-1728.299	491.708	317.723	-1968.882	470.194	77.602	-1757.651	487.408	204.805	-1986.169	475.402	184.160	-1635.434	81.942	298.050	-2120.931	74.150	117.252	-1632.566	90.659	228.241	-2110.910	83.384	186.053	-1944.300	1453.155	182.549	-1843.148	1383.599	261.159	-1853.462	1379.165	106.819	-1860.848	1382.763	180.815	-1826.213	1180.760	177.540	-1735.857	593.147	401.231	-1806.509	571.017	126.206	-1740.489	656.336	329.211	-1869.175	644.051	86.644	-1717.463	578.794	306.274	-1895.828	560.830	90.536	-1645.973	160.187	365.986	-1984.233	149.981	159.236	-1675.903	211.117	304.729	-2030.686	217.283	143.118	-1508.362	91.336	252.068	-1994.103	40.802	149.236
	63	0.73333	-1888.213	883.974	199.501	-1883.255	875.094	250.041	-1892.335	872.760	143.884	-1727.625	487.385	258.383	-1968.545	469.532	137.418	-1623.575	82.387	259.916	-2118.344	76.335	156.728	-1810.747	971.715	188.222	-1801.832	974.007	292.441	-1819.661	969.424	84.002	-2007.925	994.893	246.829	-2014.896	996.621	161.710	-1721.118	491.267	317.398	-1964.213	469.665	78.076	-1750.523	487.385	204.055	-1981.356	475.521	184.804	-1629.437	81.023	297.437	-2120.465	75.207	117.301	-1626.232	89.810	227.738	-2110.283	84.283	186.149	-1938.115	1452.333	184.279	-1837.115	1382.553	262.308	-1847.417	1378.530	108.203	-1854.808	1381.939	182.085	-1820.313	1179.921	178.291	-1728.037	592.792	400.648	-1801.124	570.042	126.097	-1733.209	656.132	328.732	-1863.264	643.249	86.859	-1710.067	578.646	305.499	-1890.663	560.107	90.853	-1639.719	159.244	365.462	-1982.928	149.459	159.339	-1669.451	210.322	304.231	-2028.511	217.285	143.525	-1502.110	90.046	252.113	-1993.920	40.757	149.133
